%TF.GenerationSoftware,KiCad,Pcbnew,5.1.10-88a1d61d58~88~ubuntu18.04.1*%
%TF.CreationDate,2021-08-08T17:29:49+07:00*%
%TF.ProjectId,AETINA_ACCS3-STD-AN00-TEKNIQUE_OCLEA_OS08A20-ADAPTER,41455449-4e41-45f4-9143-4353332d5354,rev?*%
%TF.SameCoordinates,Original*%
%TF.FileFunction,Copper,L2,Bot*%
%TF.FilePolarity,Positive*%
%FSLAX46Y46*%
G04 Gerber Fmt 4.6, Leading zero omitted, Abs format (unit mm)*
G04 Created by KiCad (PCBNEW 5.1.10-88a1d61d58~88~ubuntu18.04.1) date 2021-08-08 17:29:49*
%MOMM*%
%LPD*%
G01*
G04 APERTURE LIST*
%TA.AperFunction,ComponentPad*%
%ADD10C,4.400000*%
%TD*%
%TA.AperFunction,ViaPad*%
%ADD11C,0.800000*%
%TD*%
%TA.AperFunction,Conductor*%
%ADD12C,0.200000*%
%TD*%
%TA.AperFunction,Conductor*%
%ADD13C,0.300000*%
%TD*%
%TA.AperFunction,Conductor*%
%ADD14C,0.350000*%
%TD*%
%TA.AperFunction,Conductor*%
%ADD15C,0.254000*%
%TD*%
%TA.AperFunction,Conductor*%
%ADD16C,0.100000*%
%TD*%
G04 APERTURE END LIST*
D10*
%TO.P,H4,1*%
%TO.N,N/C*%
X139646660Y-79181960D03*
%TD*%
%TO.P,H3,1*%
%TO.N,N/C*%
X139552680Y-113235740D03*
%TD*%
%TO.P,H2,1*%
%TO.N,N/C*%
X105514140Y-113238280D03*
%TD*%
%TO.P,H1,1*%
%TO.N,N/C*%
X105389680Y-79164180D03*
%TD*%
D11*
%TO.N,GND*%
X107485180Y-86039960D03*
X107477560Y-106883200D03*
X129661920Y-92425520D03*
X138643360Y-105961180D03*
X138676380Y-87198200D03*
X124462540Y-99687380D03*
X124480320Y-102339140D03*
X134696200Y-97515680D03*
X138516360Y-91465400D03*
X124490480Y-97185480D03*
X129674620Y-94635320D03*
X115356640Y-94538800D03*
X115300760Y-99651820D03*
X114711480Y-89479120D03*
X110474760Y-103073200D03*
X115316000Y-97020380D03*
X124485400Y-105425240D03*
X129674620Y-102323900D03*
X115277900Y-102275640D03*
X115277900Y-105331260D03*
X129674620Y-105427780D03*
X129667000Y-88798400D03*
X138503660Y-94305120D03*
%TO.N,/CSI_nRST_1V8*%
X104106980Y-92555060D03*
X117167660Y-92557600D03*
%TO.N,/I2C_SCL_1V8*%
X104114600Y-91485720D03*
X112793780Y-91473020D03*
%TO.N,+3V3*%
X138544300Y-90274140D03*
X104152700Y-106616500D03*
%TO.N,+5V*%
X134645400Y-88773000D03*
X111660940Y-110484920D03*
%TO.N,/SVSYNC*%
X110502700Y-93687900D03*
X132765800Y-92964000D03*
%TO.N,/SHSYNC*%
X104140000Y-93700600D03*
X134371080Y-91638120D03*
%TO.N,/CLK_SI_3V3*%
X138480800Y-92768420D03*
X120586500Y-92075000D03*
%TO.N,/SD_LVDS3_N*%
X139217400Y-101257100D03*
X110490000Y-95199200D03*
%TO.N,/SD_LVDS3_P*%
X139230100Y-102273100D03*
X104140000Y-95275400D03*
%TO.N,/SD_LVDS2_N*%
X134640320Y-101963220D03*
X104152700Y-96697800D03*
%TO.N,/SD_LVDS2_P*%
X134650480Y-103131620D03*
X110477300Y-97193100D03*
%TO.N,/SD_LVDS1_N*%
X133311900Y-99949000D03*
X110477300Y-98196400D03*
%TO.N,/SD_LVDS1_P*%
X133235700Y-100977700D03*
X104140000Y-98242120D03*
%TO.N,/SPCLK_LVDS0_N*%
X104178100Y-100203000D03*
X134594600Y-105308400D03*
%TO.N,/SPCLK_LVDS0_P*%
X134658100Y-106426000D03*
X110490000Y-100203000D03*
%TO.N,/SD_LVDS0_N*%
X138468100Y-97604580D03*
X110502700Y-101206300D03*
%TO.N,/SD_LVDS0_P*%
X138478260Y-98651060D03*
X104178100Y-101701600D03*
%TD*%
D12*
%TO.N,/CSI_nRST_1V8*%
X117165120Y-92555060D02*
X117167660Y-92557600D01*
X104106980Y-92555060D02*
X117165120Y-92555060D01*
%TO.N,/I2C_SCL_1V8*%
X112781080Y-91485720D02*
X112793780Y-91473020D01*
X104114600Y-91485720D02*
X112781080Y-91485720D01*
D13*
%TO.N,+3V3*%
X104985820Y-105783380D02*
X104152700Y-106616500D01*
X138544300Y-90274140D02*
X140233400Y-90274140D01*
X141033500Y-91074240D02*
X141033500Y-106735880D01*
X141033500Y-106735880D02*
X138043920Y-109725460D01*
X108099860Y-105783380D02*
X104985820Y-105783380D01*
X112041940Y-109725460D02*
X108099860Y-105783380D01*
X140233400Y-90274140D02*
X141033500Y-91074240D01*
X138043920Y-109725460D02*
X112041940Y-109725460D01*
D14*
%TO.N,+5V*%
X141909800Y-90848180D02*
X139834620Y-88773000D01*
X141909800Y-107063540D02*
X141909800Y-90848180D01*
X139834620Y-88773000D02*
X134645400Y-88773000D01*
X138493500Y-110479840D02*
X141909800Y-107063540D01*
X111666020Y-110479840D02*
X138493500Y-110479840D01*
X111660940Y-110484920D02*
X111666020Y-110479840D01*
D12*
%TO.N,/SVSYNC*%
X132041900Y-93687900D02*
X132765800Y-92964000D01*
X110502700Y-93687900D02*
X132041900Y-93687900D01*
%TO.N,/SHSYNC*%
X103271320Y-90947240D02*
X103271320Y-93426280D01*
X103657400Y-90561160D02*
X103271320Y-90947240D01*
X103545640Y-93700600D02*
X104140000Y-93700600D01*
X103271320Y-93426280D02*
X103545640Y-93700600D01*
X134371080Y-91638120D02*
X133294120Y-90561160D01*
X133294120Y-90561160D02*
X103657400Y-90561160D01*
%TO.N,/CLK_SI_3V3*%
X134061200Y-92773500D02*
X133235700Y-91948000D01*
X138442700Y-92773500D02*
X134061200Y-92773500D01*
X120586500Y-91373960D02*
X120586500Y-92075000D01*
X120896380Y-91064080D02*
X120586500Y-91373960D01*
X132356860Y-91064080D02*
X120896380Y-91064080D01*
X134061200Y-92773500D02*
X134061200Y-92768420D01*
X134061200Y-92768420D02*
X132356860Y-91064080D01*
%TO.N,/SD_LVDS3_N*%
X139463780Y-101010720D02*
X139217400Y-101257100D01*
X139463780Y-96395540D02*
X139463780Y-101010720D01*
X138838940Y-95770700D02*
X139463780Y-96395540D01*
X111061500Y-95770700D02*
X138838940Y-95770700D01*
X110490000Y-95199200D02*
X111061500Y-95770700D01*
%TO.N,/SD_LVDS3_P*%
X139917401Y-101585799D02*
X139230100Y-102273100D01*
X139917401Y-96283463D02*
X139917401Y-101585799D01*
X104140000Y-95275400D02*
X104140000Y-94759780D01*
X104140000Y-94759780D02*
X104400581Y-94499199D01*
X110826001Y-94499199D02*
X111697492Y-95370690D01*
X111697492Y-95370690D02*
X139004629Y-95370690D01*
X104400581Y-94499199D02*
X110826001Y-94499199D01*
X139004629Y-95370690D02*
X139917401Y-96283463D01*
%TO.N,/SD_LVDS2_N*%
X104152700Y-96174560D02*
X104152700Y-96697800D01*
X104335580Y-95991680D02*
X104152700Y-96174560D01*
X110091220Y-95991680D02*
X104335580Y-95991680D01*
X134640320Y-101963220D02*
X134640320Y-98978020D01*
X134027400Y-98365100D02*
X114811600Y-98365100D01*
X134640320Y-98978020D02*
X134027400Y-98365100D01*
X114811600Y-98365100D02*
X112744301Y-96297801D01*
X112744301Y-96297801D02*
X110397341Y-96297801D01*
X110397341Y-96297801D02*
X110091220Y-95991680D01*
%TO.N,/SD_LVDS2_P*%
X112979200Y-97193100D02*
X110477300Y-97193100D01*
X114601200Y-98815100D02*
X112979200Y-97193100D01*
X134650480Y-103131620D02*
X134056120Y-103131620D01*
X134056120Y-103131620D02*
X133692900Y-102768400D01*
X133841000Y-98815100D02*
X114601200Y-98815100D01*
X133692900Y-102768400D02*
X133692900Y-101765100D01*
X134195470Y-101262530D02*
X134195470Y-99169570D01*
X133692900Y-101765100D02*
X134195470Y-101262530D01*
X134195470Y-99169570D02*
X133841000Y-98815100D01*
%TO.N,/SD_LVDS1_N*%
X110477300Y-98196400D02*
X111508427Y-98196400D01*
X111508427Y-98196400D02*
X113848827Y-100536800D01*
X132638800Y-99949000D02*
X133311900Y-99949000D01*
X132051000Y-100536800D02*
X132638800Y-99949000D01*
X113848827Y-100536800D02*
X132051000Y-100536800D01*
%TO.N,/SD_LVDS1_P*%
X132965400Y-100986800D02*
X113662427Y-100986800D01*
X113662427Y-100986800D02*
X111576364Y-98900736D01*
X108445300Y-97599500D02*
X109746536Y-98900736D01*
X111576364Y-98900736D02*
X109746536Y-98900736D01*
X104140000Y-98242120D02*
X104140000Y-97805240D01*
X104140000Y-97805240D02*
X104140000Y-97617280D01*
X104140000Y-97617280D02*
X104353360Y-97403920D01*
X108249720Y-97403920D02*
X109746536Y-98900736D01*
X104353360Y-97403920D02*
X108249720Y-97403920D01*
%TO.N,/SPCLK_LVDS0_N*%
X134594600Y-105295700D02*
X134594600Y-105295700D01*
X133338530Y-106564470D02*
X134594600Y-105308400D01*
X113153230Y-106564470D02*
X133338530Y-106564470D01*
X110811310Y-104222550D02*
X113153230Y-106564470D01*
X103399800Y-100981300D02*
X103399800Y-102647540D01*
X104178100Y-100203000D02*
X103399800Y-100981300D01*
X103399800Y-102647540D02*
X103695920Y-102943660D01*
X108699300Y-102943660D02*
X109978190Y-104222550D01*
X103695920Y-102943660D02*
X108699300Y-102943660D01*
X109978190Y-104222550D02*
X110811310Y-104222550D01*
%TO.N,/SPCLK_LVDS0_P*%
X134119620Y-106964480D02*
X134658100Y-106426000D01*
X112987541Y-106964480D02*
X134119620Y-106964480D01*
X109812502Y-104622560D02*
X110645621Y-104622560D01*
X103448700Y-103390700D02*
X108580642Y-103390700D01*
X110645621Y-104622560D02*
X112987541Y-106964480D01*
X110490000Y-100203000D02*
X105422700Y-100203000D01*
X105422700Y-100203000D02*
X104722699Y-99502999D01*
X108580642Y-103390700D02*
X109812502Y-104622560D01*
X104722699Y-99502999D02*
X103842099Y-99502999D01*
X102949800Y-100395298D02*
X102949800Y-102891800D01*
X103842099Y-99502999D02*
X102949800Y-100395298D01*
X102949800Y-102891800D02*
X103448700Y-103390700D01*
%TO.N,/SD_LVDS0_N*%
X138284181Y-97951059D02*
X138468100Y-97767140D01*
X138468100Y-97767140D02*
X138468100Y-97604580D01*
X138142259Y-97951059D02*
X138284181Y-97951059D01*
X137624820Y-98915220D02*
X137624820Y-98468498D01*
X136808000Y-99732040D02*
X137624820Y-98915220D01*
X137624820Y-98468498D02*
X138142259Y-97951059D01*
X110502700Y-101206300D02*
X111117800Y-101206300D01*
X113585200Y-103673700D02*
X133833660Y-103673700D01*
X136808000Y-102154500D02*
X136808000Y-99732040D01*
X111117800Y-101206300D02*
X113585200Y-103673700D01*
X134916830Y-104045670D02*
X136808000Y-102154500D01*
X133833660Y-103673700D02*
X134205630Y-104045670D01*
X134205630Y-104045670D02*
X134916830Y-104045670D01*
%TO.N,/SD_LVDS0_P*%
X138478260Y-99011740D02*
X138478260Y-98651060D01*
X137258000Y-100232000D02*
X138478260Y-99011740D01*
X137258000Y-102340900D02*
X137258000Y-100232000D01*
X135110962Y-104487938D02*
X137258000Y-102340900D01*
X134005278Y-104487938D02*
X135110962Y-104487938D01*
X104178100Y-101701600D02*
X109961998Y-101701600D01*
X110264099Y-102003701D02*
X111312801Y-102003701D01*
X111312801Y-102003701D02*
X113432800Y-104123700D01*
X113432800Y-104123700D02*
X133641040Y-104123700D01*
X109961998Y-101701600D02*
X110264099Y-102003701D01*
X133641040Y-104123700D02*
X134005278Y-104487938D01*
%TD*%
D15*
%TO.N,GND*%
X138728781Y-100339217D02*
X138727144Y-100339895D01*
X138557626Y-100453163D01*
X138413463Y-100597326D01*
X138300195Y-100766844D01*
X138222174Y-100955202D01*
X138182400Y-101155161D01*
X138182400Y-101359039D01*
X138222174Y-101558998D01*
X138300195Y-101747356D01*
X138318401Y-101774603D01*
X138312895Y-101782844D01*
X138234874Y-101971202D01*
X138195100Y-102171161D01*
X138195100Y-102375039D01*
X138234874Y-102574998D01*
X138312895Y-102763356D01*
X138426163Y-102932874D01*
X138570326Y-103077037D01*
X138739844Y-103190305D01*
X138928202Y-103268326D01*
X139128161Y-103308100D01*
X139332039Y-103308100D01*
X139531998Y-103268326D01*
X139720356Y-103190305D01*
X139889874Y-103077037D01*
X140034037Y-102932874D01*
X140147305Y-102763356D01*
X140225326Y-102574998D01*
X140248501Y-102458490D01*
X140248501Y-106410722D01*
X137718763Y-108940460D01*
X112367098Y-108940460D01*
X108682207Y-105255570D01*
X108657624Y-105225616D01*
X108538093Y-105127518D01*
X108401720Y-105054626D01*
X108253747Y-105009739D01*
X108138421Y-104998380D01*
X108138413Y-104998380D01*
X108099860Y-104994583D01*
X108061307Y-104998380D01*
X105024376Y-104998380D01*
X104985820Y-104994583D01*
X104947264Y-104998380D01*
X104947259Y-104998380D01*
X104906846Y-105002360D01*
X104831933Y-105009738D01*
X104683960Y-105054626D01*
X104547587Y-105127518D01*
X104428056Y-105225616D01*
X104403473Y-105255570D01*
X104077543Y-105581500D01*
X104050761Y-105581500D01*
X103850802Y-105621274D01*
X103662444Y-105699295D01*
X103492926Y-105812563D01*
X103348763Y-105956726D01*
X103235495Y-106126244D01*
X103157474Y-106314602D01*
X103117700Y-106514561D01*
X103117700Y-106718439D01*
X103157474Y-106918398D01*
X103235495Y-107106756D01*
X103348763Y-107276274D01*
X103492926Y-107420437D01*
X103662444Y-107533705D01*
X103850802Y-107611726D01*
X104050761Y-107651500D01*
X104254639Y-107651500D01*
X104454598Y-107611726D01*
X104642956Y-107533705D01*
X104812474Y-107420437D01*
X104956637Y-107276274D01*
X105069905Y-107106756D01*
X105147926Y-106918398D01*
X105187700Y-106718439D01*
X105187700Y-106691657D01*
X105310977Y-106568380D01*
X107774703Y-106568380D01*
X110944236Y-109737913D01*
X110857003Y-109825146D01*
X110743735Y-109994664D01*
X110665714Y-110183022D01*
X110625940Y-110382981D01*
X110625940Y-110586859D01*
X110665714Y-110786818D01*
X110743735Y-110975176D01*
X110857003Y-111144694D01*
X111001166Y-111288857D01*
X111170684Y-111402125D01*
X111359042Y-111480146D01*
X111559001Y-111519920D01*
X111762879Y-111519920D01*
X111962838Y-111480146D01*
X112151196Y-111402125D01*
X112319243Y-111289840D01*
X137489285Y-111289840D01*
X137350592Y-111428533D01*
X137040336Y-111892864D01*
X136826628Y-112408801D01*
X136717680Y-112956517D01*
X136717680Y-113514963D01*
X136826628Y-114062679D01*
X137040336Y-114578616D01*
X137350592Y-115042947D01*
X137745473Y-115437828D01*
X138209804Y-115748084D01*
X138479897Y-115859960D01*
X106593055Y-115859960D01*
X106857016Y-115750624D01*
X107321347Y-115440368D01*
X107716228Y-115045487D01*
X108026484Y-114581156D01*
X108240192Y-114065219D01*
X108349140Y-113517503D01*
X108349140Y-112959057D01*
X108240192Y-112411341D01*
X108026484Y-111895404D01*
X107716228Y-111431073D01*
X107321347Y-111036192D01*
X106857016Y-110725936D01*
X106341079Y-110512228D01*
X105793363Y-110403280D01*
X105234917Y-110403280D01*
X104687201Y-110512228D01*
X104171264Y-110725936D01*
X103706933Y-111036192D01*
X103312052Y-111431073D01*
X103001796Y-111895404D01*
X102920579Y-112091478D01*
X102921796Y-103907253D01*
X102926462Y-103912938D01*
X103038380Y-104004787D01*
X103166067Y-104073037D01*
X103256014Y-104100322D01*
X103304614Y-104115065D01*
X103318832Y-104116465D01*
X103412595Y-104125700D01*
X103412602Y-104125700D01*
X103448699Y-104129255D01*
X103484796Y-104125700D01*
X108276196Y-104125700D01*
X109267248Y-105116753D01*
X109290264Y-105144798D01*
X109402182Y-105236647D01*
X109529869Y-105304897D01*
X109626388Y-105334176D01*
X109668416Y-105346925D01*
X109682634Y-105348325D01*
X109776397Y-105357560D01*
X109776404Y-105357560D01*
X109812501Y-105361115D01*
X109848598Y-105357560D01*
X110341175Y-105357560D01*
X112442287Y-107458673D01*
X112465303Y-107486718D01*
X112577221Y-107578567D01*
X112704908Y-107646817D01*
X112801427Y-107676096D01*
X112843455Y-107688845D01*
X112987540Y-107703036D01*
X113023645Y-107699480D01*
X134083515Y-107699480D01*
X134119620Y-107703036D01*
X134155725Y-107699480D01*
X134263705Y-107688845D01*
X134402253Y-107646817D01*
X134529940Y-107578567D01*
X134641858Y-107486718D01*
X134662964Y-107461000D01*
X134760039Y-107461000D01*
X134959998Y-107421226D01*
X135148356Y-107343205D01*
X135317874Y-107229937D01*
X135462037Y-107085774D01*
X135575305Y-106916256D01*
X135653326Y-106727898D01*
X135693100Y-106527939D01*
X135693100Y-106324061D01*
X135653326Y-106124102D01*
X135575305Y-105935744D01*
X135497755Y-105819683D01*
X135511805Y-105798656D01*
X135589826Y-105610298D01*
X135629600Y-105410339D01*
X135629600Y-105206461D01*
X135596541Y-105040261D01*
X135633200Y-105010176D01*
X135656220Y-104982126D01*
X137752197Y-102886150D01*
X137780237Y-102863138D01*
X137803250Y-102835097D01*
X137803253Y-102835094D01*
X137872086Y-102751221D01*
X137872087Y-102751220D01*
X137940337Y-102623533D01*
X137982365Y-102484985D01*
X137993000Y-102377005D01*
X137993000Y-102376996D01*
X137996555Y-102340901D01*
X137993000Y-102304806D01*
X137993000Y-100536446D01*
X138728781Y-99800666D01*
X138728781Y-100339217D01*
%TA.AperFunction,Conductor*%
D16*
G36*
X138728781Y-100339217D02*
G01*
X138727144Y-100339895D01*
X138557626Y-100453163D01*
X138413463Y-100597326D01*
X138300195Y-100766844D01*
X138222174Y-100955202D01*
X138182400Y-101155161D01*
X138182400Y-101359039D01*
X138222174Y-101558998D01*
X138300195Y-101747356D01*
X138318401Y-101774603D01*
X138312895Y-101782844D01*
X138234874Y-101971202D01*
X138195100Y-102171161D01*
X138195100Y-102375039D01*
X138234874Y-102574998D01*
X138312895Y-102763356D01*
X138426163Y-102932874D01*
X138570326Y-103077037D01*
X138739844Y-103190305D01*
X138928202Y-103268326D01*
X139128161Y-103308100D01*
X139332039Y-103308100D01*
X139531998Y-103268326D01*
X139720356Y-103190305D01*
X139889874Y-103077037D01*
X140034037Y-102932874D01*
X140147305Y-102763356D01*
X140225326Y-102574998D01*
X140248501Y-102458490D01*
X140248501Y-106410722D01*
X137718763Y-108940460D01*
X112367098Y-108940460D01*
X108682207Y-105255570D01*
X108657624Y-105225616D01*
X108538093Y-105127518D01*
X108401720Y-105054626D01*
X108253747Y-105009739D01*
X108138421Y-104998380D01*
X108138413Y-104998380D01*
X108099860Y-104994583D01*
X108061307Y-104998380D01*
X105024376Y-104998380D01*
X104985820Y-104994583D01*
X104947264Y-104998380D01*
X104947259Y-104998380D01*
X104906846Y-105002360D01*
X104831933Y-105009738D01*
X104683960Y-105054626D01*
X104547587Y-105127518D01*
X104428056Y-105225616D01*
X104403473Y-105255570D01*
X104077543Y-105581500D01*
X104050761Y-105581500D01*
X103850802Y-105621274D01*
X103662444Y-105699295D01*
X103492926Y-105812563D01*
X103348763Y-105956726D01*
X103235495Y-106126244D01*
X103157474Y-106314602D01*
X103117700Y-106514561D01*
X103117700Y-106718439D01*
X103157474Y-106918398D01*
X103235495Y-107106756D01*
X103348763Y-107276274D01*
X103492926Y-107420437D01*
X103662444Y-107533705D01*
X103850802Y-107611726D01*
X104050761Y-107651500D01*
X104254639Y-107651500D01*
X104454598Y-107611726D01*
X104642956Y-107533705D01*
X104812474Y-107420437D01*
X104956637Y-107276274D01*
X105069905Y-107106756D01*
X105147926Y-106918398D01*
X105187700Y-106718439D01*
X105187700Y-106691657D01*
X105310977Y-106568380D01*
X107774703Y-106568380D01*
X110944236Y-109737913D01*
X110857003Y-109825146D01*
X110743735Y-109994664D01*
X110665714Y-110183022D01*
X110625940Y-110382981D01*
X110625940Y-110586859D01*
X110665714Y-110786818D01*
X110743735Y-110975176D01*
X110857003Y-111144694D01*
X111001166Y-111288857D01*
X111170684Y-111402125D01*
X111359042Y-111480146D01*
X111559001Y-111519920D01*
X111762879Y-111519920D01*
X111962838Y-111480146D01*
X112151196Y-111402125D01*
X112319243Y-111289840D01*
X137489285Y-111289840D01*
X137350592Y-111428533D01*
X137040336Y-111892864D01*
X136826628Y-112408801D01*
X136717680Y-112956517D01*
X136717680Y-113514963D01*
X136826628Y-114062679D01*
X137040336Y-114578616D01*
X137350592Y-115042947D01*
X137745473Y-115437828D01*
X138209804Y-115748084D01*
X138479897Y-115859960D01*
X106593055Y-115859960D01*
X106857016Y-115750624D01*
X107321347Y-115440368D01*
X107716228Y-115045487D01*
X108026484Y-114581156D01*
X108240192Y-114065219D01*
X108349140Y-113517503D01*
X108349140Y-112959057D01*
X108240192Y-112411341D01*
X108026484Y-111895404D01*
X107716228Y-111431073D01*
X107321347Y-111036192D01*
X106857016Y-110725936D01*
X106341079Y-110512228D01*
X105793363Y-110403280D01*
X105234917Y-110403280D01*
X104687201Y-110512228D01*
X104171264Y-110725936D01*
X103706933Y-111036192D01*
X103312052Y-111431073D01*
X103001796Y-111895404D01*
X102920579Y-112091478D01*
X102921796Y-103907253D01*
X102926462Y-103912938D01*
X103038380Y-104004787D01*
X103166067Y-104073037D01*
X103256014Y-104100322D01*
X103304614Y-104115065D01*
X103318832Y-104116465D01*
X103412595Y-104125700D01*
X103412602Y-104125700D01*
X103448699Y-104129255D01*
X103484796Y-104125700D01*
X108276196Y-104125700D01*
X109267248Y-105116753D01*
X109290264Y-105144798D01*
X109402182Y-105236647D01*
X109529869Y-105304897D01*
X109626388Y-105334176D01*
X109668416Y-105346925D01*
X109682634Y-105348325D01*
X109776397Y-105357560D01*
X109776404Y-105357560D01*
X109812501Y-105361115D01*
X109848598Y-105357560D01*
X110341175Y-105357560D01*
X112442287Y-107458673D01*
X112465303Y-107486718D01*
X112577221Y-107578567D01*
X112704908Y-107646817D01*
X112801427Y-107676096D01*
X112843455Y-107688845D01*
X112987540Y-107703036D01*
X113023645Y-107699480D01*
X134083515Y-107699480D01*
X134119620Y-107703036D01*
X134155725Y-107699480D01*
X134263705Y-107688845D01*
X134402253Y-107646817D01*
X134529940Y-107578567D01*
X134641858Y-107486718D01*
X134662964Y-107461000D01*
X134760039Y-107461000D01*
X134959998Y-107421226D01*
X135148356Y-107343205D01*
X135317874Y-107229937D01*
X135462037Y-107085774D01*
X135575305Y-106916256D01*
X135653326Y-106727898D01*
X135693100Y-106527939D01*
X135693100Y-106324061D01*
X135653326Y-106124102D01*
X135575305Y-105935744D01*
X135497755Y-105819683D01*
X135511805Y-105798656D01*
X135589826Y-105610298D01*
X135629600Y-105410339D01*
X135629600Y-105206461D01*
X135596541Y-105040261D01*
X135633200Y-105010176D01*
X135656220Y-104982126D01*
X137752197Y-102886150D01*
X137780237Y-102863138D01*
X137803250Y-102835097D01*
X137803253Y-102835094D01*
X137872086Y-102751221D01*
X137872087Y-102751220D01*
X137940337Y-102623533D01*
X137982365Y-102484985D01*
X137993000Y-102377005D01*
X137993000Y-102376996D01*
X137996555Y-102340901D01*
X137993000Y-102304806D01*
X137993000Y-100536446D01*
X138728781Y-99800666D01*
X138728781Y-100339217D01*
G37*
%TD.AperFunction*%
D15*
X109718840Y-102497888D02*
X109741861Y-102525939D01*
X109853779Y-102617788D01*
X109981466Y-102686038D01*
X110120014Y-102728066D01*
X110227994Y-102738701D01*
X110228003Y-102738701D01*
X110264098Y-102742256D01*
X110300193Y-102738701D01*
X111008355Y-102738701D01*
X112887546Y-104617893D01*
X112910562Y-104645938D01*
X113022480Y-104737787D01*
X113150167Y-104806037D01*
X113288715Y-104848065D01*
X113396695Y-104858700D01*
X113396704Y-104858700D01*
X113432799Y-104862255D01*
X113468894Y-104858700D01*
X133336594Y-104858700D01*
X133460019Y-104982125D01*
X133483040Y-105010176D01*
X133582420Y-105091735D01*
X133559600Y-105206461D01*
X133559600Y-105303953D01*
X133034084Y-105829470D01*
X113457677Y-105829470D01*
X111356569Y-103728362D01*
X111333548Y-103700312D01*
X111221630Y-103608463D01*
X111093943Y-103540213D01*
X110955395Y-103498185D01*
X110847415Y-103487550D01*
X110811310Y-103483994D01*
X110775205Y-103487550D01*
X110282637Y-103487550D01*
X109244558Y-102449472D01*
X109233994Y-102436600D01*
X109657552Y-102436600D01*
X109718840Y-102497888D01*
%TA.AperFunction,Conductor*%
D16*
G36*
X109718840Y-102497888D02*
G01*
X109741861Y-102525939D01*
X109853779Y-102617788D01*
X109981466Y-102686038D01*
X110120014Y-102728066D01*
X110227994Y-102738701D01*
X110228003Y-102738701D01*
X110264098Y-102742256D01*
X110300193Y-102738701D01*
X111008355Y-102738701D01*
X112887546Y-104617893D01*
X112910562Y-104645938D01*
X113022480Y-104737787D01*
X113150167Y-104806037D01*
X113288715Y-104848065D01*
X113396695Y-104858700D01*
X113396704Y-104858700D01*
X113432799Y-104862255D01*
X113468894Y-104858700D01*
X133336594Y-104858700D01*
X133460019Y-104982125D01*
X133483040Y-105010176D01*
X133582420Y-105091735D01*
X133559600Y-105206461D01*
X133559600Y-105303953D01*
X133034084Y-105829470D01*
X113457677Y-105829470D01*
X111356569Y-103728362D01*
X111333548Y-103700312D01*
X111221630Y-103608463D01*
X111093943Y-103540213D01*
X110955395Y-103498185D01*
X110847415Y-103487550D01*
X110811310Y-103483994D01*
X110775205Y-103487550D01*
X110282637Y-103487550D01*
X109244558Y-102449472D01*
X109233994Y-102436600D01*
X109657552Y-102436600D01*
X109718840Y-102497888D01*
G37*
%TD.AperFunction*%
D15*
X113117173Y-101480993D02*
X113140189Y-101509038D01*
X113252107Y-101600887D01*
X113379794Y-101669137D01*
X113518342Y-101711165D01*
X113626322Y-101721800D01*
X113626331Y-101721800D01*
X113662426Y-101725355D01*
X113698521Y-101721800D01*
X132516089Y-101721800D01*
X132575926Y-101781637D01*
X132745444Y-101894905D01*
X132933802Y-101972926D01*
X132957901Y-101977720D01*
X132957900Y-102732294D01*
X132954344Y-102768400D01*
X132968535Y-102912485D01*
X132976487Y-102938700D01*
X113889647Y-102938700D01*
X111663059Y-100712112D01*
X111640038Y-100684062D01*
X111528120Y-100592213D01*
X111463390Y-100557614D01*
X111485226Y-100504898D01*
X111525000Y-100304939D01*
X111525000Y-100101061D01*
X111485226Y-99901102D01*
X111448415Y-99812234D01*
X113117173Y-101480993D01*
%TA.AperFunction,Conductor*%
D16*
G36*
X113117173Y-101480993D02*
G01*
X113140189Y-101509038D01*
X113252107Y-101600887D01*
X113379794Y-101669137D01*
X113518342Y-101711165D01*
X113626322Y-101721800D01*
X113626331Y-101721800D01*
X113662426Y-101725355D01*
X113698521Y-101721800D01*
X132516089Y-101721800D01*
X132575926Y-101781637D01*
X132745444Y-101894905D01*
X132933802Y-101972926D01*
X132957901Y-101977720D01*
X132957900Y-102732294D01*
X132954344Y-102768400D01*
X132968535Y-102912485D01*
X132976487Y-102938700D01*
X113889647Y-102938700D01*
X111663059Y-100712112D01*
X111640038Y-100684062D01*
X111528120Y-100592213D01*
X111463390Y-100557614D01*
X111485226Y-100504898D01*
X111525000Y-100304939D01*
X111525000Y-100101061D01*
X111485226Y-99901102D01*
X111448415Y-99812234D01*
X113117173Y-101480993D01*
G37*
%TD.AperFunction*%
D15*
X138605409Y-96576615D02*
X138570039Y-96569580D01*
X138366161Y-96569580D01*
X138166202Y-96609354D01*
X137977844Y-96687375D01*
X137808326Y-96800643D01*
X137664163Y-96944806D01*
X137550895Y-97114324D01*
X137472874Y-97302682D01*
X137433100Y-97502641D01*
X137433100Y-97620771D01*
X137130628Y-97923244D01*
X137102583Y-97946260D01*
X137010733Y-98058178D01*
X136942483Y-98185865D01*
X136907977Y-98299616D01*
X136900455Y-98324413D01*
X136886264Y-98468498D01*
X136889820Y-98504603D01*
X136889820Y-98610773D01*
X136313808Y-99186786D01*
X136285763Y-99209802D01*
X136193914Y-99321720D01*
X136150070Y-99403747D01*
X136125664Y-99449407D01*
X136083635Y-99587955D01*
X136069444Y-99732040D01*
X136073001Y-99768155D01*
X136073000Y-101850053D01*
X135619714Y-102303339D01*
X135635546Y-102265118D01*
X135675320Y-102065159D01*
X135675320Y-101861281D01*
X135635546Y-101661322D01*
X135557525Y-101472964D01*
X135444257Y-101303446D01*
X135375320Y-101234509D01*
X135375320Y-99014125D01*
X135378876Y-98978020D01*
X135364685Y-98833935D01*
X135347910Y-98778635D01*
X135322657Y-98695387D01*
X135254407Y-98567700D01*
X135162558Y-98455782D01*
X135134513Y-98432766D01*
X134572658Y-97870912D01*
X134549638Y-97842862D01*
X134437720Y-97751013D01*
X134310033Y-97682763D01*
X134171485Y-97640735D01*
X134063505Y-97630100D01*
X134027400Y-97626544D01*
X133991295Y-97630100D01*
X115116047Y-97630100D01*
X113991646Y-96505700D01*
X138534494Y-96505700D01*
X138605409Y-96576615D01*
%TA.AperFunction,Conductor*%
D16*
G36*
X138605409Y-96576615D02*
G01*
X138570039Y-96569580D01*
X138366161Y-96569580D01*
X138166202Y-96609354D01*
X137977844Y-96687375D01*
X137808326Y-96800643D01*
X137664163Y-96944806D01*
X137550895Y-97114324D01*
X137472874Y-97302682D01*
X137433100Y-97502641D01*
X137433100Y-97620771D01*
X137130628Y-97923244D01*
X137102583Y-97946260D01*
X137010733Y-98058178D01*
X136942483Y-98185865D01*
X136907977Y-98299616D01*
X136900455Y-98324413D01*
X136886264Y-98468498D01*
X136889820Y-98504603D01*
X136889820Y-98610773D01*
X136313808Y-99186786D01*
X136285763Y-99209802D01*
X136193914Y-99321720D01*
X136150070Y-99403747D01*
X136125664Y-99449407D01*
X136083635Y-99587955D01*
X136069444Y-99732040D01*
X136073001Y-99768155D01*
X136073000Y-101850053D01*
X135619714Y-102303339D01*
X135635546Y-102265118D01*
X135675320Y-102065159D01*
X135675320Y-101861281D01*
X135635546Y-101661322D01*
X135557525Y-101472964D01*
X135444257Y-101303446D01*
X135375320Y-101234509D01*
X135375320Y-99014125D01*
X135378876Y-98978020D01*
X135364685Y-98833935D01*
X135347910Y-98778635D01*
X135322657Y-98695387D01*
X135254407Y-98567700D01*
X135162558Y-98455782D01*
X135134513Y-98432766D01*
X134572658Y-97870912D01*
X134549638Y-97842862D01*
X134437720Y-97751013D01*
X134310033Y-97682763D01*
X134171485Y-97640735D01*
X134063505Y-97630100D01*
X134027400Y-97626544D01*
X133991295Y-97630100D01*
X115116047Y-97630100D01*
X113991646Y-96505700D01*
X138534494Y-96505700D01*
X138605409Y-96576615D01*
G37*
%TD.AperFunction*%
D15*
X114055946Y-99309293D02*
X114078962Y-99337338D01*
X114190880Y-99429187D01*
X114318567Y-99497437D01*
X114457115Y-99539465D01*
X114565095Y-99550100D01*
X114565104Y-99550100D01*
X114601199Y-99553655D01*
X114637294Y-99550100D01*
X131998253Y-99550100D01*
X131746554Y-99801800D01*
X114153274Y-99801800D01*
X112279573Y-97928100D01*
X112674754Y-97928100D01*
X114055946Y-99309293D01*
%TA.AperFunction,Conductor*%
D16*
G36*
X114055946Y-99309293D02*
G01*
X114078962Y-99337338D01*
X114190880Y-99429187D01*
X114318567Y-99497437D01*
X114457115Y-99539465D01*
X114565095Y-99550100D01*
X114565104Y-99550100D01*
X114601199Y-99553655D01*
X114637294Y-99550100D01*
X131998253Y-99550100D01*
X131746554Y-99801800D01*
X114153274Y-99801800D01*
X112279573Y-97928100D01*
X112674754Y-97928100D01*
X114055946Y-99309293D01*
G37*
%TD.AperFunction*%
D15*
X138262444Y-76697239D02*
X137839453Y-76979872D01*
X137444572Y-77374753D01*
X137134316Y-77839084D01*
X136920608Y-78355021D01*
X136811660Y-78902737D01*
X136811660Y-79461183D01*
X136920608Y-80008899D01*
X137134316Y-80524836D01*
X137444572Y-80989167D01*
X137839453Y-81384048D01*
X138303784Y-81694304D01*
X138819721Y-81908012D01*
X139367437Y-82016960D01*
X139925883Y-82016960D01*
X140473599Y-81908012D01*
X140989536Y-81694304D01*
X141453867Y-81384048D01*
X141848748Y-80989167D01*
X142088000Y-80631101D01*
X142088000Y-89880868D01*
X140435519Y-88228387D01*
X140410148Y-88197472D01*
X140286809Y-88096251D01*
X140146093Y-88021037D01*
X139993408Y-87974720D01*
X139874411Y-87963000D01*
X139874408Y-87963000D01*
X139834620Y-87959081D01*
X139794832Y-87963000D01*
X135296100Y-87963000D01*
X135135656Y-87855795D01*
X134947298Y-87777774D01*
X134747339Y-87738000D01*
X134543461Y-87738000D01*
X134343502Y-87777774D01*
X134155144Y-87855795D01*
X133985626Y-87969063D01*
X133841463Y-88113226D01*
X133728195Y-88282744D01*
X133650174Y-88471102D01*
X133610400Y-88671061D01*
X133610400Y-88874939D01*
X133650174Y-89074898D01*
X133728195Y-89263256D01*
X133841463Y-89432774D01*
X133985626Y-89576937D01*
X134155144Y-89690205D01*
X134343502Y-89768226D01*
X134543461Y-89808000D01*
X134747339Y-89808000D01*
X134947298Y-89768226D01*
X135135656Y-89690205D01*
X135296100Y-89583000D01*
X137771729Y-89583000D01*
X137740363Y-89614366D01*
X137627095Y-89783884D01*
X137549074Y-89972242D01*
X137509300Y-90172201D01*
X137509300Y-90376079D01*
X137549074Y-90576038D01*
X137627095Y-90764396D01*
X137740363Y-90933914D01*
X137884526Y-91078077D01*
X138054044Y-91191345D01*
X138242402Y-91269366D01*
X138442361Y-91309140D01*
X138646239Y-91309140D01*
X138846198Y-91269366D01*
X139034556Y-91191345D01*
X139204074Y-91078077D01*
X139223011Y-91059140D01*
X139908243Y-91059140D01*
X140248500Y-91399398D01*
X140248500Y-95575115D01*
X139549888Y-94876503D01*
X139526867Y-94848452D01*
X139414949Y-94756603D01*
X139287262Y-94688353D01*
X139148714Y-94646325D01*
X139040734Y-94635690D01*
X139004629Y-94632134D01*
X138968524Y-94635690D01*
X112001939Y-94635690D01*
X111789149Y-94422900D01*
X132005795Y-94422900D01*
X132041900Y-94426456D01*
X132078005Y-94422900D01*
X132185985Y-94412265D01*
X132324533Y-94370237D01*
X132452220Y-94301987D01*
X132564138Y-94210138D01*
X132587158Y-94182088D01*
X132770246Y-93999000D01*
X132867739Y-93999000D01*
X133067698Y-93959226D01*
X133256056Y-93881205D01*
X133425574Y-93767937D01*
X133569737Y-93623774D01*
X133683005Y-93454256D01*
X133699791Y-93413731D01*
X133778567Y-93455837D01*
X133917115Y-93497865D01*
X134061200Y-93512056D01*
X134097305Y-93508500D01*
X137757169Y-93508500D01*
X137821026Y-93572357D01*
X137990544Y-93685625D01*
X138178902Y-93763646D01*
X138378861Y-93803420D01*
X138582739Y-93803420D01*
X138782698Y-93763646D01*
X138971056Y-93685625D01*
X139140574Y-93572357D01*
X139284737Y-93428194D01*
X139398005Y-93258676D01*
X139476026Y-93070318D01*
X139515800Y-92870359D01*
X139515800Y-92666481D01*
X139476026Y-92466522D01*
X139398005Y-92278164D01*
X139284737Y-92108646D01*
X139140574Y-91964483D01*
X138971056Y-91851215D01*
X138782698Y-91773194D01*
X138582739Y-91733420D01*
X138378861Y-91733420D01*
X138178902Y-91773194D01*
X137990544Y-91851215D01*
X137821026Y-91964483D01*
X137747009Y-92038500D01*
X135325513Y-92038500D01*
X135366306Y-91940018D01*
X135406080Y-91740059D01*
X135406080Y-91536181D01*
X135366306Y-91336222D01*
X135288285Y-91147864D01*
X135175017Y-90978346D01*
X135030854Y-90834183D01*
X134861336Y-90720915D01*
X134672978Y-90642894D01*
X134473019Y-90603120D01*
X134375527Y-90603120D01*
X133839378Y-90066972D01*
X133816358Y-90038922D01*
X133704440Y-89947073D01*
X133576753Y-89878823D01*
X133438205Y-89836795D01*
X133330225Y-89826160D01*
X133294120Y-89822604D01*
X133258015Y-89826160D01*
X103693505Y-89826160D01*
X103657400Y-89822604D01*
X103513315Y-89836795D01*
X103374766Y-89878823D01*
X103310924Y-89912948D01*
X103247080Y-89947073D01*
X103135162Y-90038922D01*
X103112141Y-90066973D01*
X102923827Y-90255287D01*
X102925265Y-80578787D01*
X103187592Y-80971387D01*
X103582473Y-81366268D01*
X104046804Y-81676524D01*
X104562741Y-81890232D01*
X105110457Y-81999180D01*
X105668903Y-81999180D01*
X106216619Y-81890232D01*
X106732556Y-81676524D01*
X107196887Y-81366268D01*
X107591768Y-80971387D01*
X107902024Y-80507056D01*
X108115732Y-79991119D01*
X108224680Y-79443403D01*
X108224680Y-78884957D01*
X108115732Y-78337241D01*
X107902024Y-77821304D01*
X107591768Y-77356973D01*
X107196887Y-76962092D01*
X106793519Y-76692570D01*
X138262444Y-76697239D01*
%TA.AperFunction,Conductor*%
D16*
G36*
X138262444Y-76697239D02*
G01*
X137839453Y-76979872D01*
X137444572Y-77374753D01*
X137134316Y-77839084D01*
X136920608Y-78355021D01*
X136811660Y-78902737D01*
X136811660Y-79461183D01*
X136920608Y-80008899D01*
X137134316Y-80524836D01*
X137444572Y-80989167D01*
X137839453Y-81384048D01*
X138303784Y-81694304D01*
X138819721Y-81908012D01*
X139367437Y-82016960D01*
X139925883Y-82016960D01*
X140473599Y-81908012D01*
X140989536Y-81694304D01*
X141453867Y-81384048D01*
X141848748Y-80989167D01*
X142088000Y-80631101D01*
X142088000Y-89880868D01*
X140435519Y-88228387D01*
X140410148Y-88197472D01*
X140286809Y-88096251D01*
X140146093Y-88021037D01*
X139993408Y-87974720D01*
X139874411Y-87963000D01*
X139874408Y-87963000D01*
X139834620Y-87959081D01*
X139794832Y-87963000D01*
X135296100Y-87963000D01*
X135135656Y-87855795D01*
X134947298Y-87777774D01*
X134747339Y-87738000D01*
X134543461Y-87738000D01*
X134343502Y-87777774D01*
X134155144Y-87855795D01*
X133985626Y-87969063D01*
X133841463Y-88113226D01*
X133728195Y-88282744D01*
X133650174Y-88471102D01*
X133610400Y-88671061D01*
X133610400Y-88874939D01*
X133650174Y-89074898D01*
X133728195Y-89263256D01*
X133841463Y-89432774D01*
X133985626Y-89576937D01*
X134155144Y-89690205D01*
X134343502Y-89768226D01*
X134543461Y-89808000D01*
X134747339Y-89808000D01*
X134947298Y-89768226D01*
X135135656Y-89690205D01*
X135296100Y-89583000D01*
X137771729Y-89583000D01*
X137740363Y-89614366D01*
X137627095Y-89783884D01*
X137549074Y-89972242D01*
X137509300Y-90172201D01*
X137509300Y-90376079D01*
X137549074Y-90576038D01*
X137627095Y-90764396D01*
X137740363Y-90933914D01*
X137884526Y-91078077D01*
X138054044Y-91191345D01*
X138242402Y-91269366D01*
X138442361Y-91309140D01*
X138646239Y-91309140D01*
X138846198Y-91269366D01*
X139034556Y-91191345D01*
X139204074Y-91078077D01*
X139223011Y-91059140D01*
X139908243Y-91059140D01*
X140248500Y-91399398D01*
X140248500Y-95575115D01*
X139549888Y-94876503D01*
X139526867Y-94848452D01*
X139414949Y-94756603D01*
X139287262Y-94688353D01*
X139148714Y-94646325D01*
X139040734Y-94635690D01*
X139004629Y-94632134D01*
X138968524Y-94635690D01*
X112001939Y-94635690D01*
X111789149Y-94422900D01*
X132005795Y-94422900D01*
X132041900Y-94426456D01*
X132078005Y-94422900D01*
X132185985Y-94412265D01*
X132324533Y-94370237D01*
X132452220Y-94301987D01*
X132564138Y-94210138D01*
X132587158Y-94182088D01*
X132770246Y-93999000D01*
X132867739Y-93999000D01*
X133067698Y-93959226D01*
X133256056Y-93881205D01*
X133425574Y-93767937D01*
X133569737Y-93623774D01*
X133683005Y-93454256D01*
X133699791Y-93413731D01*
X133778567Y-93455837D01*
X133917115Y-93497865D01*
X134061200Y-93512056D01*
X134097305Y-93508500D01*
X137757169Y-93508500D01*
X137821026Y-93572357D01*
X137990544Y-93685625D01*
X138178902Y-93763646D01*
X138378861Y-93803420D01*
X138582739Y-93803420D01*
X138782698Y-93763646D01*
X138971056Y-93685625D01*
X139140574Y-93572357D01*
X139284737Y-93428194D01*
X139398005Y-93258676D01*
X139476026Y-93070318D01*
X139515800Y-92870359D01*
X139515800Y-92666481D01*
X139476026Y-92466522D01*
X139398005Y-92278164D01*
X139284737Y-92108646D01*
X139140574Y-91964483D01*
X138971056Y-91851215D01*
X138782698Y-91773194D01*
X138582739Y-91733420D01*
X138378861Y-91733420D01*
X138178902Y-91773194D01*
X137990544Y-91851215D01*
X137821026Y-91964483D01*
X137747009Y-92038500D01*
X135325513Y-92038500D01*
X135366306Y-91940018D01*
X135406080Y-91740059D01*
X135406080Y-91536181D01*
X135366306Y-91336222D01*
X135288285Y-91147864D01*
X135175017Y-90978346D01*
X135030854Y-90834183D01*
X134861336Y-90720915D01*
X134672978Y-90642894D01*
X134473019Y-90603120D01*
X134375527Y-90603120D01*
X133839378Y-90066972D01*
X133816358Y-90038922D01*
X133704440Y-89947073D01*
X133576753Y-89878823D01*
X133438205Y-89836795D01*
X133330225Y-89826160D01*
X133294120Y-89822604D01*
X133258015Y-89826160D01*
X103693505Y-89826160D01*
X103657400Y-89822604D01*
X103513315Y-89836795D01*
X103374766Y-89878823D01*
X103310924Y-89912948D01*
X103247080Y-89947073D01*
X103135162Y-90038922D01*
X103112141Y-90066973D01*
X102923827Y-90255287D01*
X102925265Y-80578787D01*
X103187592Y-80971387D01*
X103582473Y-81366268D01*
X104046804Y-81676524D01*
X104562741Y-81890232D01*
X105110457Y-81999180D01*
X105668903Y-81999180D01*
X106216619Y-81890232D01*
X106732556Y-81676524D01*
X107196887Y-81366268D01*
X107591768Y-80971387D01*
X107902024Y-80507056D01*
X108115732Y-79991119D01*
X108224680Y-79443403D01*
X108224680Y-78884957D01*
X108115732Y-78337241D01*
X107902024Y-77821304D01*
X107591768Y-77356973D01*
X107196887Y-76962092D01*
X106793519Y-76692570D01*
X138262444Y-76697239D01*
G37*
%TD.AperFunction*%
D15*
X132292928Y-92039594D02*
X132275544Y-92046795D01*
X132106026Y-92160063D01*
X131961863Y-92304226D01*
X131848595Y-92473744D01*
X131770574Y-92662102D01*
X131730800Y-92862061D01*
X131730800Y-92952900D01*
X121135580Y-92952900D01*
X121246274Y-92878937D01*
X121390437Y-92734774D01*
X121503705Y-92565256D01*
X121581726Y-92376898D01*
X121621500Y-92176939D01*
X121621500Y-91973061D01*
X121586893Y-91799080D01*
X132052414Y-91799080D01*
X132292928Y-92039594D01*
%TA.AperFunction,Conductor*%
D16*
G36*
X132292928Y-92039594D02*
G01*
X132275544Y-92046795D01*
X132106026Y-92160063D01*
X131961863Y-92304226D01*
X131848595Y-92473744D01*
X131770574Y-92662102D01*
X131730800Y-92862061D01*
X131730800Y-92952900D01*
X121135580Y-92952900D01*
X121246274Y-92878937D01*
X121390437Y-92734774D01*
X121503705Y-92565256D01*
X121581726Y-92376898D01*
X121621500Y-92176939D01*
X121621500Y-91973061D01*
X121586893Y-91799080D01*
X132052414Y-91799080D01*
X132292928Y-92039594D01*
G37*
%TD.AperFunction*%
%TD*%
M02*
