%TF.GenerationSoftware,KiCad,Pcbnew,5.1.10-88a1d61d58~88~ubuntu18.04.1*%
%TF.CreationDate,2021-08-08T17:29:49+07:00*%
%TF.ProjectId,AETINA_ACCS3-STD-AN00-TEKNIQUE_OCLEA_OS08A20-ADAPTER,41455449-4e41-45f4-9143-4353332d5354,rev?*%
%TF.SameCoordinates,Original*%
%TF.FileFunction,Soldermask,Top*%
%TF.FilePolarity,Negative*%
%FSLAX46Y46*%
G04 Gerber Fmt 4.6, Leading zero omitted, Abs format (unit mm)*
G04 Created by KiCad (PCBNEW 5.1.10-88a1d61d58~88~ubuntu18.04.1) date 2021-08-08 17:29:49*
%MOMM*%
%LPD*%
G01*
G04 APERTURE LIST*
%ADD10R,3.100000X2.300000*%
%ADD11R,1.100000X0.300000*%
%ADD12R,1.600000X0.400000*%
%ADD13R,2.900000X1.400000*%
%ADD14C,1.000000*%
%ADD15R,1.358900X0.355600*%
%ADD16R,0.450000X0.300000*%
%ADD17C,4.400000*%
G04 APERTURE END LIST*
%TO.C,R2*%
G36*
G01*
X119831560Y-96942061D02*
X119831560Y-96042059D01*
G75*
G02*
X120081559Y-95792060I249999J0D01*
G01*
X120781561Y-95792060D01*
G75*
G02*
X121031560Y-96042059I0J-249999D01*
G01*
X121031560Y-96942061D01*
G75*
G02*
X120781561Y-97192060I-249999J0D01*
G01*
X120081559Y-97192060D01*
G75*
G02*
X119831560Y-96942061I0J249999D01*
G01*
G37*
G36*
G01*
X117831560Y-96942061D02*
X117831560Y-96042059D01*
G75*
G02*
X118081559Y-95792060I249999J0D01*
G01*
X118781561Y-95792060D01*
G75*
G02*
X119031560Y-96042059I0J-249999D01*
G01*
X119031560Y-96942061D01*
G75*
G02*
X118781561Y-97192060I-249999J0D01*
G01*
X118081559Y-97192060D01*
G75*
G02*
X117831560Y-96942061I0J249999D01*
G01*
G37*
%TD*%
D10*
%TO.C,J2*%
X138649700Y-87100000D03*
X138649700Y-105940000D03*
D11*
X136949700Y-88770000D03*
X136949700Y-89270000D03*
X136949700Y-89770000D03*
X136949700Y-90270000D03*
X136949700Y-90770000D03*
X136949700Y-91270000D03*
X136949700Y-91770000D03*
X136949700Y-92270000D03*
X136949700Y-92770000D03*
X136949700Y-93270000D03*
X136949700Y-93770000D03*
X136949700Y-94270000D03*
X136949700Y-94770000D03*
X136949700Y-95270000D03*
X136949700Y-95770000D03*
X136949700Y-96270000D03*
X136949700Y-96770000D03*
X136949700Y-97270000D03*
X136949700Y-97770000D03*
X136949700Y-98270000D03*
X136949700Y-98770000D03*
X136949700Y-99270000D03*
X136949700Y-99770000D03*
X136949700Y-100270000D03*
X136949700Y-100770000D03*
X136949700Y-101270000D03*
X136949700Y-101770000D03*
X136949700Y-102270000D03*
X136949700Y-102770000D03*
X136949700Y-103270000D03*
X136949700Y-103770000D03*
X136949700Y-104270000D03*
%TD*%
D12*
%TO.C,J1*%
X106273900Y-87703500D03*
X108673900Y-88203500D03*
X106273900Y-88703500D03*
X108673900Y-89203500D03*
X106273900Y-89703500D03*
X108673900Y-90203500D03*
X106273900Y-90703500D03*
X108673900Y-91203500D03*
X106273900Y-91703500D03*
X108673900Y-92203500D03*
X106273900Y-92703500D03*
X108673900Y-93203500D03*
X106273900Y-93703500D03*
X108673900Y-94203500D03*
X106273900Y-94703500D03*
X108673900Y-95203500D03*
X106273900Y-95703500D03*
X108673900Y-96203500D03*
X106273900Y-96703500D03*
X108673900Y-97203500D03*
X106273900Y-97703500D03*
X108673900Y-98203500D03*
X106273900Y-98703500D03*
X108673900Y-99203500D03*
X106273900Y-99703500D03*
X108673900Y-100203500D03*
X106273900Y-100703500D03*
X108673900Y-101203500D03*
X106273900Y-101703500D03*
X108673900Y-102203500D03*
X106273900Y-102703500D03*
X108673900Y-103203500D03*
X106273900Y-103703500D03*
X108673900Y-104203500D03*
X106273900Y-104703500D03*
X108673900Y-105203500D03*
D13*
X107473900Y-86003500D03*
X107473900Y-106903500D03*
%TD*%
D14*
%TO.C,TP5*%
X134371080Y-91638120D03*
%TD*%
%TO.C,TP4*%
X132765800Y-92964000D03*
%TD*%
%TO.C,TP3*%
X134391400Y-94188280D03*
%TD*%
%TO.C,TP2*%
X132765800Y-95453200D03*
%TD*%
%TO.C,TP1*%
X112862360Y-94091760D03*
%TD*%
D15*
%TO.C,U1*%
X128238250Y-95840001D03*
X128238250Y-96490000D03*
X128238250Y-97140001D03*
X128238250Y-97790000D03*
X128238250Y-98440001D03*
X128238250Y-99090000D03*
X128238250Y-99740001D03*
X122485150Y-99739999D03*
X122485150Y-99090000D03*
X122485150Y-98439999D03*
X122485150Y-97790000D03*
X122485150Y-97140001D03*
X122485150Y-96490000D03*
X122485150Y-95839999D03*
%TD*%
%TO.C,C2*%
G36*
G01*
X128482100Y-92957600D02*
X128007100Y-92957600D01*
G75*
G02*
X127769600Y-92720100I0J237500D01*
G01*
X127769600Y-92120100D01*
G75*
G02*
X128007100Y-91882600I237500J0D01*
G01*
X128482100Y-91882600D01*
G75*
G02*
X128719600Y-92120100I0J-237500D01*
G01*
X128719600Y-92720100D01*
G75*
G02*
X128482100Y-92957600I-237500J0D01*
G01*
G37*
G36*
G01*
X128482100Y-94682600D02*
X128007100Y-94682600D01*
G75*
G02*
X127769600Y-94445100I0J237500D01*
G01*
X127769600Y-93845100D01*
G75*
G02*
X128007100Y-93607600I237500J0D01*
G01*
X128482100Y-93607600D01*
G75*
G02*
X128719600Y-93845100I0J-237500D01*
G01*
X128719600Y-94445100D01*
G75*
G02*
X128482100Y-94682600I-237500J0D01*
G01*
G37*
%TD*%
%TO.C,C1*%
G36*
G01*
X125079880Y-91634300D02*
X125079880Y-92109300D01*
G75*
G02*
X124842380Y-92346800I-237500J0D01*
G01*
X124242380Y-92346800D01*
G75*
G02*
X124004880Y-92109300I0J237500D01*
G01*
X124004880Y-91634300D01*
G75*
G02*
X124242380Y-91396800I237500J0D01*
G01*
X124842380Y-91396800D01*
G75*
G02*
X125079880Y-91634300I0J-237500D01*
G01*
G37*
G36*
G01*
X126804880Y-91634300D02*
X126804880Y-92109300D01*
G75*
G02*
X126567380Y-92346800I-237500J0D01*
G01*
X125967380Y-92346800D01*
G75*
G02*
X125729880Y-92109300I0J237500D01*
G01*
X125729880Y-91634300D01*
G75*
G02*
X125967380Y-91396800I237500J0D01*
G01*
X126567380Y-91396800D01*
G75*
G02*
X126804880Y-91634300I0J-237500D01*
G01*
G37*
%TD*%
D16*
%TO.C,U2*%
X126036300Y-94314900D03*
X124636300Y-93814900D03*
X126036300Y-93314900D03*
X124636300Y-94314900D03*
X124636300Y-93314900D03*
%TD*%
%TO.C,R1*%
G36*
G01*
X122069439Y-91471440D02*
X122969441Y-91471440D01*
G75*
G02*
X123219440Y-91721439I0J-249999D01*
G01*
X123219440Y-92421441D01*
G75*
G02*
X122969441Y-92671440I-249999J0D01*
G01*
X122069439Y-92671440D01*
G75*
G02*
X121819440Y-92421441I0J249999D01*
G01*
X121819440Y-91721439D01*
G75*
G02*
X122069439Y-91471440I249999J0D01*
G01*
G37*
G36*
G01*
X122069439Y-93471440D02*
X122969441Y-93471440D01*
G75*
G02*
X123219440Y-93721439I0J-249999D01*
G01*
X123219440Y-94421441D01*
G75*
G02*
X122969441Y-94671440I-249999J0D01*
G01*
X122069439Y-94671440D01*
G75*
G02*
X121819440Y-94421441I0J249999D01*
G01*
X121819440Y-93721439D01*
G75*
G02*
X122069439Y-93471440I249999J0D01*
G01*
G37*
%TD*%
D17*
%TO.C,H4*%
X139646660Y-79181960D03*
%TD*%
%TO.C,H3*%
X139552680Y-113235740D03*
%TD*%
%TO.C,H2*%
X105514140Y-113238280D03*
%TD*%
%TO.C,H1*%
X105389680Y-79164180D03*
%TD*%
M02*
