M48
; DRILL file {KiCad 5.1.10-88a1d61d58~88~ubuntu18.04.1} date Sun Aug  8 17:29:55 2021
; FORMAT={-:-/ absolute / inch / decimal}
; #@! TF.CreationDate,2021-08-08T17:29:55+07:00
; #@! TF.GenerationSoftware,Kicad,Pcbnew,5.1.10-88a1d61d58~88~ubuntu18.04.1
FMAT,2
INCH
T1C0.0157
T2C0.0866
%
G90
G05
T1
X4.0987Y-3.6439
X4.099Y-3.6018
X4.1Y-3.689
X4.1Y-3.751
X4.1Y-3.8678
X4.1005Y-3.807
X4.1005Y-4.1975
X4.1015Y-3.945
X4.1015Y-4.004
X4.2314Y-4.208
X4.2317Y-3.3874
X4.3494Y-4.058
X4.3495Y-3.8265
X4.3495Y-3.866
X4.35Y-3.748
X4.35Y-3.945
X4.3505Y-3.6885
X4.3505Y-3.9845
X4.3961Y-4.3498
X4.4407Y-3.6013
X4.5162Y-3.5228
X4.5385Y-4.0266
X4.5385Y-4.1469
X4.5394Y-3.9233
X4.54Y-3.8197
X4.5416Y-3.722
X4.6129Y-3.644
X4.7475Y-3.625
X4.9001Y-3.9247
X4.9008Y-4.0291
X4.901Y-4.1506
X4.9012Y-3.8262
X5.1048Y-3.6388
X5.105Y-3.496
X5.1053Y-3.7258
X5.1053Y-4.0285
X5.1053Y-4.1507
X5.227Y-3.66
X5.2455Y-3.9755
X5.2485Y-3.935
X5.2902Y-3.6078
X5.299Y-4.146
X5.3008Y-4.0143
X5.301Y-3.495
X5.3012Y-4.0603
X5.3015Y-4.19
X5.303Y-3.8392
X5.4515Y-3.8427
X5.4519Y-3.8839
X5.452Y-3.6523
X5.4529Y-3.7128
X5.4534Y-3.601
X5.4545Y-3.5541
X5.4584Y-4.1717
X5.4597Y-3.433
X5.481Y-3.9865
X5.4815Y-4.0265
T2
X4.1492Y-3.1167
X4.1541Y-4.4582
X5.4942Y-4.4581
X5.4979Y-3.1174
T0
M30
