%TF.GenerationSoftware,KiCad,Pcbnew,5.1.10-88a1d61d58~88~ubuntu18.04.1*%
%TF.CreationDate,2021-08-08T17:29:49+07:00*%
%TF.ProjectId,AETINA_ACCS3-STD-AN00-TEKNIQUE_OCLEA_OS08A20-ADAPTER,41455449-4e41-45f4-9143-4353332d5354,rev?*%
%TF.SameCoordinates,Original*%
%TF.FileFunction,Legend,Top*%
%TF.FilePolarity,Positive*%
%FSLAX46Y46*%
G04 Gerber Fmt 4.6, Leading zero omitted, Abs format (unit mm)*
G04 Created by KiCad (PCBNEW 5.1.10-88a1d61d58~88~ubuntu18.04.1) date 2021-08-08 17:29:49*
%MOMM*%
%LPD*%
G01*
G04 APERTURE LIST*
%ADD10C,0.120000*%
%ADD11C,0.100000*%
%ADD12C,0.200000*%
%ADD13C,0.127000*%
%ADD14C,0.150000*%
%ADD15C,0.254000*%
G04 APERTURE END LIST*
D10*
%TO.C,R2*%
X119204496Y-95757060D02*
X119658624Y-95757060D01*
X119204496Y-97227060D02*
X119658624Y-97227060D01*
D11*
%TO.C,J2*%
X140299700Y-107235000D02*
X141699700Y-107235000D01*
X141699700Y-107235000D02*
X141699700Y-85805000D01*
X141699700Y-85805000D02*
X140299700Y-85805000D01*
D12*
%TO.C,J1*%
X110138900Y-105207500D02*
G75*
G03*
X110138900Y-105207500I-100000J0D01*
G01*
D13*
X105723900Y-107953500D02*
X105723900Y-108303500D01*
X105723900Y-108303500D02*
X109023900Y-108303500D01*
X109023900Y-108303500D02*
X109023900Y-107953500D01*
X105723900Y-84953500D02*
X105723900Y-84603500D01*
X105723900Y-84603500D02*
X109023900Y-84603500D01*
X109023900Y-84603500D02*
X109023900Y-84953500D01*
D10*
%TO.C,TP5*%
X135071080Y-91638120D02*
G75*
G03*
X135071080Y-91638120I-700000J0D01*
G01*
%TO.C,TP4*%
X133465800Y-92964000D02*
G75*
G03*
X133465800Y-92964000I-700000J0D01*
G01*
%TO.C,TP3*%
X135091400Y-94188280D02*
G75*
G03*
X135091400Y-94188280I-700000J0D01*
G01*
%TO.C,TP2*%
X133465800Y-95453200D02*
G75*
G03*
X133465800Y-95453200I-700000J0D01*
G01*
%TO.C,TP1*%
X113562360Y-94091760D02*
G75*
G03*
X113562360Y-94091760I-700000J0D01*
G01*
D11*
%TO.C,U1*%
G36*
X129425700Y-98249499D02*
G01*
X129425700Y-98630499D01*
X129171700Y-98630499D01*
X129171700Y-98249499D01*
X129425700Y-98249499D01*
G37*
X129425700Y-98249499D02*
X129425700Y-98630499D01*
X129171700Y-98630499D01*
X129171700Y-98249499D01*
X129425700Y-98249499D01*
D10*
X127685800Y-95329461D02*
X127685800Y-95110300D01*
X123037600Y-100250539D02*
X123037600Y-100469700D01*
X123037600Y-95110300D02*
X123037600Y-95329459D01*
X127685800Y-95110300D02*
X123037600Y-95110300D01*
X127685800Y-100469700D02*
X127685800Y-100250541D01*
X123037600Y-100469700D02*
X127685800Y-100469700D01*
%TO.C,C2*%
X128754600Y-93428867D02*
X128754600Y-93136333D01*
X127734600Y-93428867D02*
X127734600Y-93136333D01*
%TO.C,C1*%
X125551147Y-91361800D02*
X125258613Y-91361800D01*
X125551147Y-92381800D02*
X125258613Y-92381800D01*
%TO.C,U2*%
X125986300Y-94714900D02*
X124686300Y-94714900D01*
X124436300Y-92914900D02*
X125986300Y-92914900D01*
%TO.C,R1*%
X121784440Y-92844376D02*
X121784440Y-93298504D01*
X123254440Y-92844376D02*
X123254440Y-93298504D01*
%TO.C,R2*%
D14*
X119227860Y-94034906D02*
X118751670Y-94368240D01*
X119227860Y-94606335D02*
X118227860Y-94606335D01*
X118227860Y-94225382D01*
X118275480Y-94130144D01*
X118323099Y-94082525D01*
X118418337Y-94034906D01*
X118561194Y-94034906D01*
X118656432Y-94082525D01*
X118704051Y-94130144D01*
X118751670Y-94225382D01*
X118751670Y-94606335D01*
X118323099Y-93653954D02*
X118275480Y-93606335D01*
X118227860Y-93511097D01*
X118227860Y-93273001D01*
X118275480Y-93177763D01*
X118323099Y-93130144D01*
X118418337Y-93082525D01*
X118513575Y-93082525D01*
X118656432Y-93130144D01*
X119227860Y-93701573D01*
X119227860Y-93082525D01*
%TO.C,J2*%
D15*
X134887183Y-87428493D02*
X135794326Y-87428493D01*
X135975755Y-87488969D01*
X136096707Y-87609921D01*
X136157183Y-87791350D01*
X136157183Y-87912302D01*
X135008136Y-86884207D02*
X134947660Y-86823731D01*
X134887183Y-86702779D01*
X134887183Y-86400398D01*
X134947660Y-86279445D01*
X135008136Y-86218969D01*
X135129088Y-86158493D01*
X135250040Y-86158493D01*
X135431469Y-86218969D01*
X136157183Y-86944683D01*
X136157183Y-86158493D01*
%TO.C,J1*%
X109758963Y-107408133D02*
X110666106Y-107408133D01*
X110847535Y-107468609D01*
X110968487Y-107589561D01*
X111028963Y-107770990D01*
X111028963Y-107891942D01*
X111028963Y-106138133D02*
X111028963Y-106863847D01*
X111028963Y-106500990D02*
X109758963Y-106500990D01*
X109940392Y-106621942D01*
X110061344Y-106742895D01*
X110121820Y-106863847D01*
%TO.C,TP5*%
D14*
X133666356Y-92520824D02*
X134123499Y-92520824D01*
X133894927Y-93320824D02*
X133894927Y-92520824D01*
X134390165Y-93320824D02*
X134390165Y-92520824D01*
X134694927Y-92520824D01*
X134771118Y-92558920D01*
X134809213Y-92597015D01*
X134847308Y-92673205D01*
X134847308Y-92787491D01*
X134809213Y-92863681D01*
X134771118Y-92901777D01*
X134694927Y-92939872D01*
X134390165Y-92939872D01*
X135571118Y-92520824D02*
X135190165Y-92520824D01*
X135152070Y-92901777D01*
X135190165Y-92863681D01*
X135266356Y-92825586D01*
X135456832Y-92825586D01*
X135533022Y-92863681D01*
X135571118Y-92901777D01*
X135609213Y-92977967D01*
X135609213Y-93168443D01*
X135571118Y-93244634D01*
X135533022Y-93282729D01*
X135456832Y-93320824D01*
X135266356Y-93320824D01*
X135190165Y-93282729D01*
X135152070Y-93244634D01*
%TO.C,TP4*%
X131283836Y-93861944D02*
X131740979Y-93861944D01*
X131512407Y-94661944D02*
X131512407Y-93861944D01*
X132007645Y-94661944D02*
X132007645Y-93861944D01*
X132312407Y-93861944D01*
X132388598Y-93900040D01*
X132426693Y-93938135D01*
X132464788Y-94014325D01*
X132464788Y-94128611D01*
X132426693Y-94204801D01*
X132388598Y-94242897D01*
X132312407Y-94280992D01*
X132007645Y-94280992D01*
X133150502Y-94128611D02*
X133150502Y-94661944D01*
X132960026Y-93823849D02*
X132769550Y-94395278D01*
X133264788Y-94395278D01*
%TO.C,TP3*%
X133724776Y-95223384D02*
X134181919Y-95223384D01*
X133953347Y-96023384D02*
X133953347Y-95223384D01*
X134448585Y-96023384D02*
X134448585Y-95223384D01*
X134753347Y-95223384D01*
X134829538Y-95261480D01*
X134867633Y-95299575D01*
X134905728Y-95375765D01*
X134905728Y-95490051D01*
X134867633Y-95566241D01*
X134829538Y-95604337D01*
X134753347Y-95642432D01*
X134448585Y-95642432D01*
X135172395Y-95223384D02*
X135667633Y-95223384D01*
X135400966Y-95528146D01*
X135515252Y-95528146D01*
X135591442Y-95566241D01*
X135629538Y-95604337D01*
X135667633Y-95680527D01*
X135667633Y-95871003D01*
X135629538Y-95947194D01*
X135591442Y-95985289D01*
X135515252Y-96023384D01*
X135286680Y-96023384D01*
X135210490Y-95985289D01*
X135172395Y-95947194D01*
%TO.C,TP2*%
X131400676Y-96346064D02*
X131857819Y-96346064D01*
X131629247Y-97146064D02*
X131629247Y-96346064D01*
X132124485Y-97146064D02*
X132124485Y-96346064D01*
X132429247Y-96346064D01*
X132505438Y-96384160D01*
X132543533Y-96422255D01*
X132581628Y-96498445D01*
X132581628Y-96612731D01*
X132543533Y-96688921D01*
X132505438Y-96727017D01*
X132429247Y-96765112D01*
X132124485Y-96765112D01*
X132886390Y-96422255D02*
X132924485Y-96384160D01*
X133000676Y-96346064D01*
X133191152Y-96346064D01*
X133267342Y-96384160D01*
X133305438Y-96422255D01*
X133343533Y-96498445D01*
X133343533Y-96574636D01*
X133305438Y-96688921D01*
X132848295Y-97146064D01*
X133343533Y-97146064D01*
%TO.C,TP1*%
X111837596Y-95401184D02*
X112294739Y-95401184D01*
X112066167Y-96201184D02*
X112066167Y-95401184D01*
X112561405Y-96201184D02*
X112561405Y-95401184D01*
X112866167Y-95401184D01*
X112942358Y-95439280D01*
X112980453Y-95477375D01*
X113018548Y-95553565D01*
X113018548Y-95667851D01*
X112980453Y-95744041D01*
X112942358Y-95782137D01*
X112866167Y-95820232D01*
X112561405Y-95820232D01*
X113780453Y-96201184D02*
X113323310Y-96201184D01*
X113551881Y-96201184D02*
X113551881Y-95401184D01*
X113475691Y-95515470D01*
X113399500Y-95591660D01*
X113323310Y-95629756D01*
%TO.C,U1*%
X119980460Y-99687284D02*
X120789984Y-99687284D01*
X120885222Y-99639665D01*
X120932841Y-99592046D01*
X120980460Y-99496808D01*
X120980460Y-99306332D01*
X120932841Y-99211094D01*
X120885222Y-99163475D01*
X120789984Y-99115856D01*
X119980460Y-99115856D01*
X120980460Y-98115856D02*
X120980460Y-98687284D01*
X120980460Y-98401570D02*
X119980460Y-98401570D01*
X120123318Y-98496808D01*
X120218556Y-98592046D01*
X120266175Y-98687284D01*
X119459478Y-101963480D02*
X119459478Y-100963480D01*
X120030906Y-101963480D01*
X120030906Y-100963480D01*
X120983287Y-101963480D02*
X120507097Y-101963480D01*
X120507097Y-100963480D01*
X121269001Y-101915861D02*
X121411859Y-101963480D01*
X121649954Y-101963480D01*
X121745192Y-101915861D01*
X121792811Y-101868242D01*
X121840430Y-101773004D01*
X121840430Y-101677766D01*
X121792811Y-101582528D01*
X121745192Y-101534909D01*
X121649954Y-101487290D01*
X121459478Y-101439671D01*
X121364240Y-101392052D01*
X121316620Y-101344433D01*
X121269001Y-101249195D01*
X121269001Y-101153957D01*
X121316620Y-101058719D01*
X121364240Y-101011100D01*
X121459478Y-100963480D01*
X121697573Y-100963480D01*
X121840430Y-101011100D01*
X122173763Y-100963480D02*
X122840430Y-101963480D01*
X122840430Y-100963480D02*
X122173763Y-101963480D01*
X123697573Y-100963480D02*
X123221382Y-100963480D01*
X123173763Y-101439671D01*
X123221382Y-101392052D01*
X123316620Y-101344433D01*
X123554716Y-101344433D01*
X123649954Y-101392052D01*
X123697573Y-101439671D01*
X123745192Y-101534909D01*
X123745192Y-101773004D01*
X123697573Y-101868242D01*
X123649954Y-101915861D01*
X123554716Y-101963480D01*
X123316620Y-101963480D01*
X123221382Y-101915861D01*
X123173763Y-101868242D01*
X124364240Y-100963480D02*
X124459478Y-100963480D01*
X124554716Y-101011100D01*
X124602335Y-101058719D01*
X124649954Y-101153957D01*
X124697573Y-101344433D01*
X124697573Y-101582528D01*
X124649954Y-101773004D01*
X124602335Y-101868242D01*
X124554716Y-101915861D01*
X124459478Y-101963480D01*
X124364240Y-101963480D01*
X124269001Y-101915861D01*
X124221382Y-101868242D01*
X124173763Y-101773004D01*
X124126144Y-101582528D01*
X124126144Y-101344433D01*
X124173763Y-101153957D01*
X124221382Y-101058719D01*
X124269001Y-101011100D01*
X124364240Y-100963480D01*
X125649954Y-101963480D02*
X125078525Y-101963480D01*
X125364240Y-101963480D02*
X125364240Y-100963480D01*
X125269001Y-101106338D01*
X125173763Y-101201576D01*
X125078525Y-101249195D01*
X126507097Y-101296814D02*
X126507097Y-101963480D01*
X126269001Y-100915861D02*
X126030906Y-101630147D01*
X126649954Y-101630147D01*
X127030906Y-101963480D02*
X127030906Y-100963480D01*
X127269001Y-100963480D01*
X127411859Y-101011100D01*
X127507097Y-101106338D01*
X127554716Y-101201576D01*
X127602335Y-101392052D01*
X127602335Y-101534909D01*
X127554716Y-101725385D01*
X127507097Y-101820623D01*
X127411859Y-101915861D01*
X127269001Y-101963480D01*
X127030906Y-101963480D01*
X127888049Y-100963480D02*
X128459478Y-100963480D01*
X128173763Y-101963480D02*
X128173763Y-100963480D01*
X129364240Y-101963480D02*
X129030906Y-101487290D01*
X128792811Y-101963480D02*
X128792811Y-100963480D01*
X129173763Y-100963480D01*
X129269001Y-101011100D01*
X129316620Y-101058719D01*
X129364240Y-101153957D01*
X129364240Y-101296814D01*
X129316620Y-101392052D01*
X129269001Y-101439671D01*
X129173763Y-101487290D01*
X128792811Y-101487290D01*
X129745192Y-101058719D02*
X129792811Y-101011100D01*
X129888049Y-100963480D01*
X130126144Y-100963480D01*
X130221382Y-101011100D01*
X130269001Y-101058719D01*
X130316620Y-101153957D01*
X130316620Y-101249195D01*
X130269001Y-101392052D01*
X129697573Y-101963480D01*
X130316620Y-101963480D01*
X131269001Y-101011100D02*
X131173763Y-100963480D01*
X131030906Y-100963480D01*
X130888049Y-101011100D01*
X130792811Y-101106338D01*
X130745192Y-101201576D01*
X130697573Y-101392052D01*
X130697573Y-101534909D01*
X130745192Y-101725385D01*
X130792811Y-101820623D01*
X130888049Y-101915861D01*
X131030906Y-101963480D01*
X131126144Y-101963480D01*
X131269001Y-101915861D01*
X131316620Y-101868242D01*
X131316620Y-101534909D01*
X131126144Y-101534909D01*
X122478800Y-94946220D02*
X122478800Y-95184316D01*
X122240704Y-95089078D02*
X122478800Y-95184316D01*
X122716895Y-95089078D01*
X122335942Y-95374792D02*
X122478800Y-95184316D01*
X122621657Y-95374792D01*
X122478800Y-94938600D02*
X122478800Y-95176696D01*
X122240704Y-95081458D02*
X122478800Y-95176696D01*
X122716895Y-95081458D01*
X122335942Y-95367172D02*
X122478800Y-95176696D01*
X122621657Y-95367172D01*
%TO.C,C2*%
X128622062Y-90481446D02*
X128669681Y-90529065D01*
X128717300Y-90671922D01*
X128717300Y-90767160D01*
X128669681Y-90910018D01*
X128574443Y-91005256D01*
X128479205Y-91052875D01*
X128288729Y-91100494D01*
X128145872Y-91100494D01*
X127955396Y-91052875D01*
X127860158Y-91005256D01*
X127764920Y-90910018D01*
X127717300Y-90767160D01*
X127717300Y-90671922D01*
X127764920Y-90529065D01*
X127812539Y-90481446D01*
X127812539Y-90100494D02*
X127764920Y-90052875D01*
X127717300Y-89957637D01*
X127717300Y-89719541D01*
X127764920Y-89624303D01*
X127812539Y-89576684D01*
X127907777Y-89529065D01*
X128003015Y-89529065D01*
X128145872Y-89576684D01*
X128717300Y-90148113D01*
X128717300Y-89529065D01*
%TO.C,C1*%
X125670582Y-90397626D02*
X125718201Y-90445245D01*
X125765820Y-90588102D01*
X125765820Y-90683340D01*
X125718201Y-90826198D01*
X125622963Y-90921436D01*
X125527725Y-90969055D01*
X125337249Y-91016674D01*
X125194392Y-91016674D01*
X125003916Y-90969055D01*
X124908678Y-90921436D01*
X124813440Y-90826198D01*
X124765820Y-90683340D01*
X124765820Y-90588102D01*
X124813440Y-90445245D01*
X124861059Y-90397626D01*
X125765820Y-89445245D02*
X125765820Y-90016674D01*
X125765820Y-89730960D02*
X124765820Y-89730960D01*
X124908678Y-89826198D01*
X125003916Y-89921436D01*
X125051535Y-90016674D01*
%TO.C,U2*%
X126465080Y-94576804D02*
X127274604Y-94576804D01*
X127369842Y-94529185D01*
X127417461Y-94481566D01*
X127465080Y-94386328D01*
X127465080Y-94195852D01*
X127417461Y-94100614D01*
X127369842Y-94052995D01*
X127274604Y-94005376D01*
X126465080Y-94005376D01*
X126560319Y-93576804D02*
X126512700Y-93529185D01*
X126465080Y-93433947D01*
X126465080Y-93195852D01*
X126512700Y-93100614D01*
X126560319Y-93052995D01*
X126655557Y-93005376D01*
X126750795Y-93005376D01*
X126893652Y-93052995D01*
X127465080Y-93624423D01*
X127465080Y-93005376D01*
%TO.C,R1*%
X121351300Y-94017126D02*
X120875110Y-94350460D01*
X121351300Y-94588555D02*
X120351300Y-94588555D01*
X120351300Y-94207602D01*
X120398920Y-94112364D01*
X120446539Y-94064745D01*
X120541777Y-94017126D01*
X120684634Y-94017126D01*
X120779872Y-94064745D01*
X120827491Y-94112364D01*
X120875110Y-94207602D01*
X120875110Y-94588555D01*
X121351300Y-93064745D02*
X121351300Y-93636174D01*
X121351300Y-93350460D02*
X120351300Y-93350460D01*
X120494158Y-93445698D01*
X120589396Y-93540936D01*
X120637015Y-93636174D01*
%TO.C,H4*%
X138833955Y-83266540D02*
X138833955Y-82266540D01*
X138833955Y-82742731D02*
X139405383Y-82742731D01*
X139405383Y-83266540D02*
X139405383Y-82266540D01*
X140310145Y-82599874D02*
X140310145Y-83266540D01*
X140072050Y-82218921D02*
X139833955Y-82933207D01*
X140453002Y-82933207D01*
%TO.C,H3*%
X138816175Y-110243880D02*
X138816175Y-109243880D01*
X138816175Y-109720071D02*
X139387603Y-109720071D01*
X139387603Y-110243880D02*
X139387603Y-109243880D01*
X139768556Y-109243880D02*
X140387603Y-109243880D01*
X140054270Y-109624833D01*
X140197127Y-109624833D01*
X140292365Y-109672452D01*
X140339984Y-109720071D01*
X140387603Y-109815309D01*
X140387603Y-110053404D01*
X140339984Y-110148642D01*
X140292365Y-110196261D01*
X140197127Y-110243880D01*
X139911413Y-110243880D01*
X139816175Y-110196261D01*
X139768556Y-110148642D01*
%TO.C,H2*%
X104726835Y-110243880D02*
X104726835Y-109243880D01*
X104726835Y-109720071D02*
X105298263Y-109720071D01*
X105298263Y-110243880D02*
X105298263Y-109243880D01*
X105726835Y-109339119D02*
X105774454Y-109291500D01*
X105869692Y-109243880D01*
X106107787Y-109243880D01*
X106203025Y-109291500D01*
X106250644Y-109339119D01*
X106298263Y-109434357D01*
X106298263Y-109529595D01*
X106250644Y-109672452D01*
X105679216Y-110243880D01*
X106298263Y-110243880D01*
%TO.C,H1*%
X104653175Y-83357980D02*
X104653175Y-82357980D01*
X104653175Y-82834171D02*
X105224603Y-82834171D01*
X105224603Y-83357980D02*
X105224603Y-82357980D01*
X106224603Y-83357980D02*
X105653175Y-83357980D01*
X105938889Y-83357980D02*
X105938889Y-82357980D01*
X105843651Y-82500838D01*
X105748413Y-82596076D01*
X105653175Y-82643695D01*
%TD*%
M02*
